PathFileType	4	(X/Y/Z)	c:/Users/goper/Files/vsCode/490R/osim_files/C17/C17_SSWS_04.trc
DataRate	CameraRate	NumFrames	NumMarkers	Units                	OrigDataRate	OrigDataStartFrame	OrigNumFrames
250.00	250.00	10	36	mm	250.0	975	1949
                Frame#	Time	LPSIS			LASIS			LTH1			LTH2			LTH3			LTH4			LLFE			LMFE			LSH1			LSH2			LSH3			LSH4			LLMAL			LMMAL			LCAL			LMTP5			LTOE			LMTP1			RPSIS			RASIS			RTH1			RTH2			RTH3			RTH4			RLFE			RMFE			RSH1			RSH2			RSH3			RSH4			RLMAL			RMMAL			RCAL			RMTP1			RTOE			RMTP5		
		X1	Y1	Z1	X2	Y2	Z2	X3	Y3	Z3	X4	Y4	Z4	X5	Y5	Z5	X6	Y6	Z6	X7	Y7	Z7	X8	Y8	Z8	X9	Y9	Z9	X10	Y10	Z10	X11	Y11	Z11	X12	Y12	Z12	X13	Y13	Z13	X14	Y14	Z14	X15	Y15	Z15	X16	Y16	Z16	X17	Y17	Z17	X18	Y18	Z18	X19	Y19	Z19	X20	Y20	Z20	X21	Y21	Z21	X22	Y22	Z22	X23	Y23	Z23	X24	Y24	Z24	X25	Y25	Z25	X26	Y26	Z26	X27	Y27	Z27	X28	Y28	Z28	X29	Y29	Z29	X30	Y30	Z30	X31	Y31	Z31	X32	Y32	Z32	X33	Y33	Z33	X34	Y34	Z34	X35	Y35	Z35	X36	Y36	Z36

975	3.89600	-842.24695	1058.43860	222.58463	-1027.44788	1005.05292	334.18912	-973.51514	670.63483	364.06760	-989.26935	629.80237	363.83249	-1029.81360	689.37396	377.88397	-1039.90625	645.43408	375.50992	-1002.15375	486.14731	356.14749	-1028.36194	472.56424	231.71880	-829.42078	341.36984	344.16113	-789.89136	323.16147	338.31018	-795.09747	394.87161	340.76663	-761.57483	368.25610	338.20151	-655.50085	266.78345	312.19400	-676.44073	262.97064	226.14619	-596.80121	322.28232	265.65445	-641.69397	130.51366	317.24866	-691.95795	95.05248	254.58101	-668.85553	106.83890	204.66881	-852.70428	1058.04541	148.49380	-1041.02087	1040.24548	63.07520	-1054.87207	744.40063	9.52168	-1069.38989	700.50177	17.82711	-1111.95544	760.18591	20.34871	-1119.81812	713.26935	24.48916	-1150.06616	494.56235	54.08768	-1123.03125	511.82571	177.76315	-1078.11902	293.66901	59.89060	-1084.05457	250.41136	78.15263	-1139.99231	296.67166	72.69090	-1135.97876	251.16693	86.87749	-1082.64685	90.46986	126.31400	-1106.48511	112.91644	212.82559	-1011.71594	54.04162	172.10211	-1244.53540	50.69439	221.24860	-1262.19055	75.71308	177.09381	-1210.55933	42.33124	107.09937
976	3.90000	-847.81781	1059.94397	222.17430	-1033.26294	1007.00134	333.81793	-982.98157	672.12335	363.90952	-999.28961	631.44055	363.77625	-1039.25049	691.36548	377.85364	-1049.85791	647.59998	375.55396	-1013.75220	488.18805	356.23132	-1040.17664	474.58591	231.85938	-841.96954	342.39035	344.06964	-802.54681	324.04770	338.32666	-807.19501	395.85349	340.74246	-773.87170	369.11545	338.22266	-668.44965	266.93668	312.10129	-689.39752	262.90921	226.16156	-609.16522	320.68237	264.35818	-657.57697	130.73747	318.49927	-708.61108	95.71113	256.11786	-685.23151	106.50144	206.09181	-858.37115	1059.55188	148.10739	-1047.01965	1041.22693	62.85843	-1058.55188	745.01501	9.01962	-1072.71204	701.06641	17.31904	-1115.61450	760.38647	19.90885	-1123.11560	713.42615	24.01506	-1151.48633	494.35132	53.53836	-1125.01099	511.45642	177.22775	-1078.78430	293.76941	59.62130	-1083.47107	251.00179	76.54138	-1140.70007	296.56973	72.30791	-1136.45984	251.04372	86.52246	-1082.98071	90.51935	126.37831	-1106.62036	113.00569	212.70152	-1011.75928	54.19112	172.09207	-1244.55823	50.57911	221.26413	-1262.29150	75.53634	177.09412	-1210.64001	42.28840	107.04929
977	3.90400	-853.43524	1061.39246	221.77576	-1039.19604	1008.70831	332.80591	-992.71686	673.61023	363.79306	-1009.26428	633.13800	363.84338	-1048.65942	693.47919	377.84097	-1059.89246	649.65869	375.64145	-1025.44971	490.25473	356.34616	-1051.94519	476.66791	231.95428	-854.57983	343.30615	343.88519	-815.25610	324.78076	338.28418	-818.94733	397.20541	340.56110	-786.29510	369.60861	338.11804	-681.40759	266.90695	312.04092	-703.14777	262.57092	225.60129	-621.03204	319.10718	263.70206	-673.58447	130.76427	319.69867	-725.27191	96.20294	257.62518	-701.79645	106.04095	207.53995	-864.00964	1060.98218	147.80251	-1052.98633	1042.19604	62.63415	-1062.29492	745.68762	8.62538	-1076.07410	701.64191	16.81639	-1119.36157	760.68842	19.56008	-1126.63586	713.66632	23.52549	-1152.93176	494.16919	53.06300	-1127.01013	511.08841	176.62901	-1079.58081	293.90643	59.32014	-1084.02148	251.16553	76.27735	-1141.53979	296.40375	71.99004	-1137.04968	250.93336	86.09212	-1083.09558	90.55155	126.31876	-1106.71924	113.09821	212.56914	-1011.80902	54.30959	172.09557	-1244.60083	50.46233	221.26643	-1262.32458	75.38869	177.06639	-1210.68652	42.25142	106.97762
978	3.90800	-859.02374	1062.94531	221.40454	-1044.48315	1010.57703	332.40146	-1002.50397	675.16888	363.73468	-1019.21832	634.90869	363.88235	-1058.10608	695.55603	377.79868	-1069.79187	651.81146	375.76868	-1037.07385	492.25949	356.30325	-1063.66785	478.86215	231.99193	-867.27777	344.04446	343.71860	-828.04004	325.26367	338.26099	-831.31622	397.55038	340.63715	-798.73645	370.05090	338.03180	-694.44843	266.64737	311.90405	-716.52362	262.07227	225.56480	-633.07593	317.21674	262.94348	-689.60492	130.66113	320.86899	-742.07190	96.57571	259.04935	-718.43079	105.43891	208.90390	-869.73358	1062.42444	147.49457	-1058.92053	1043.15137	62.40207	-1066.02783	746.32928	8.31357	-1079.48120	702.18146	16.38300	-1122.62378	761.08130	19.31399	-1129.94727	713.90161	23.05861	-1154.35852	494.01791	52.65585	-1129.13757	510.71875	176.10843	-1080.29614	294.08401	59.01105	-1084.80591	251.35985	76.14355	-1142.23474	296.44199	71.60454	-1137.64832	250.92172	85.76525	-1083.22339	90.57793	126.24718	-1106.84924	113.20370	212.43712	-1011.86505	54.44470	172.07683	-1244.64868	50.38019	221.31038	-1262.40906	75.25720	177.06190	-1210.74646	42.20519	106.92146
979	3.91200	-864.77942	1064.36096	221.06470	-1049.94116	1012.42029	332.05032	-1011.94165	677.10406	363.40146	-1029.16968	636.65686	363.89853	-1067.49316	697.63147	377.79800	-1079.37903	654.09363	375.73154	-1048.50037	494.33292	356.33957	-1075.26514	481.12225	231.93913	-880.11743	344.62613	343.53549	-840.97839	325.66928	338.15668	-844.23077	397.77322	341.58838	-811.63965	369.90607	337.57007	-707.72699	266.14166	311.83664	-730.07611	261.33136	225.40059	-645.23969	315.02457	262.22827	-705.90790	130.37558	322.02359	-758.90417	95.56419	259.38959	-735.36267	104.68633	210.35435	-875.36475	1063.92798	147.25684	-1064.82153	1044.09143	62.16191	-1070.15369	746.91559	8.44406	-1082.65405	702.80835	15.90531	-1126.77698	760.91962	19.99323	-1133.30237	714.08514	22.71738	-1155.68945	493.82101	52.22758	-1131.26331	510.21014	176.28474	-1080.97131	294.23920	58.69418	-1085.31030	251.55621	75.68235	-1142.82837	296.36511	71.38911	-1138.21777	250.93417	85.59272	-1083.34619	90.62333	126.17749	-1106.98755	113.34356	212.31842	-1011.96039	54.58558	172.05318	-1244.71582	50.30429	221.29132	-1262.49426	75.16470	177.06174	-1210.81348	42.18731	106.85735
980	3.91600	-870.41278	1065.84290	220.78575	-1055.38733	1014.20660	331.62012	-1021.38556	678.77130	363.44272	-1039.08630	638.36938	363.93298	-1076.96033	699.75677	377.73840	-1089.00195	656.29718	375.81876	-1060.06250	496.28125	356.22684	-1086.79736	483.45084	231.84393	-892.93195	345.07407	343.37161	-853.94031	325.84180	338.00977	-856.23071	398.14185	341.34320	-824.07172	369.88574	337.51978	-721.09180	265.34491	311.74265	-743.70282	260.33517	225.28777	-657.53741	312.58923	261.50266	-722.14325	129.96683	323.16635	-776.33929	96.67197	261.97382	-752.39832	103.79273	211.77081	-881.04022	1065.31104	146.99287	-1070.68909	1045.01501	61.91339	-1074.31494	747.40387	8.50137	-1085.95776	703.40497	15.52352	-1130.19885	761.61542	18.66008	-1136.45190	714.39978	22.35121	-1157.03271	493.72159	51.78603	-1133.34412	510.06281	175.22128	-1081.67822	294.41623	58.32235	-1085.98279	251.67531	75.56196	-1143.68079	296.38974	71.08218	-1138.73547	250.91525	85.39951	-1083.46838	90.66924	126.11388	-1107.14111	113.48376	212.21971	-1012.17499	54.69219	172.32741	-1244.81580	50.27445	221.31682	-1262.60022	75.03103	177.03751	-1210.85278	42.14902	106.78651
981	3.92000	-876.04889	1067.34521	220.47098	-1061.51392	1016.08289	331.13815	-1031.00525	680.05109	363.81464	-1048.96606	640.16388	364.00555	-1086.19653	701.84863	377.73831	-1098.68091	658.56482	375.80627	-1071.28516	498.40527	356.16586	-1098.21167	485.89813	231.71346	-905.79321	345.34875	343.10001	-866.86578	325.84839	337.85947	-868.56677	398.16196	341.29379	-836.52850	369.71109	337.43945	-734.39380	264.40118	311.63348	-757.38055	259.24472	225.15660	-669.90771	309.96414	260.68848	-738.47357	129.39175	324.28979	-793.51001	96.80368	263.49719	-769.45398	102.78770	213.26880	-886.64691	1066.77649	146.74998	-1076.52246	1045.92053	61.65622	-1076.95215	748.17383	6.59967	-1089.89197	703.74463	15.51786	-1134.34460	761.43805	19.40551	-1140.55164	714.67542	22.31313	-1158.26379	493.57858	51.43048	-1135.33997	509.88794	174.83698	-1082.30017	294.56387	58.05700	-1086.48169	251.87291	75.32114	-1144.36292	296.38330	70.83955	-1139.21069	250.98663	85.18480	-1083.57373	90.73830	126.09448	-1107.27490	113.59936	212.14999	-1012.30573	54.85191	172.35646	-1244.87012	50.23104	221.29430	-1262.65833	74.93180	177.02382	-1210.87451	42.12572	106.72163
982	3.92400	-881.69287	1068.71643	220.19971	-1067.21631	1017.84564	330.71756	-1040.46765	681.54535	363.76471	-1058.69470	641.93073	364.04303	-1095.42883	703.98169	377.64566	-1108.32629	660.75824	375.81110	-1082.77039	500.33771	356.01175	-1109.44482	488.39468	231.47296	-918.74310	345.44788	342.83807	-879.89441	325.77530	337.66040	-880.81995	398.00320	341.21301	-849.12830	369.32654	337.34485	-747.89905	263.17932	311.46350	-771.22687	257.40701	225.74561	-682.27460	307.15121	260.16949	-754.94012	128.66324	325.42334	-810.82617	96.62283	265.01956	-787.15851	101.47054	214.15782	-892.30841	1068.20508	146.49196	-1082.32117	1046.80627	61.39013	-1080.38562	748.92114	6.24243	-1092.16406	704.63507	14.57902	-1137.94592	761.65869	19.26878	-1143.33667	714.98224	21.79787	-1159.55750	493.46490	51.12236	-1137.34473	509.86746	174.53587	-1082.97778	294.77289	57.86032	-1086.84216	252.09660	75.03922	-1144.82983	296.30725	70.61304	-1139.71167	251.00607	84.98525	-1083.69177	90.80254	126.05780	-1107.43994	113.71626	212.40248	-1012.40515	55.03487	172.34964	-1244.90173	50.14682	221.30637	-1262.76184	74.82142	176.97832	-1210.94104	42.07799	106.68256
983	3.92800	-887.40631	1070.13477	219.96425	-1072.98694	1019.50720	330.16058	-1049.52576	683.06561	363.98645	-1068.30469	643.69080	364.07672	-1104.42810	706.00067	377.64938	-1117.77368	662.98181	375.82626	-1093.90552	502.36627	355.82126	-1120.46411	490.96664	231.21992	-931.75793	345.53708	342.64185	-893.01532	325.39813	337.47192	-893.28491	397.60175	341.09290	-861.74756	368.74387	337.14804	-761.61420	261.61731	311.26947	-785.25989	256.16751	225.88914	-694.77753	303.86414	259.48184	-771.57898	127.77260	326.40277	-828.28888	96.41186	266.59967	-804.53967	100.32960	215.45210	-898.00439	1069.61536	146.32652	-1088.08484	1047.67102	61.11481	-1084.04102	749.52087	5.97539	-1095.28064	705.19592	14.24109	-1141.74902	761.96930	19.18474	-1146.46533	715.11298	21.52650	-1160.73694	493.41324	50.83938	-1139.54065	510.03735	174.25903	-1083.49976	295.01877	57.79124	-1088.13599	251.76518	76.25376	-1145.46838	296.31247	70.38602	-1140.21094	251.03291	84.79842	-1083.81702	90.87978	126.05160	-1107.61060	113.81582	212.35913	-1012.47821	55.28434	172.51614	-1244.98376	50.06258	221.29610	-1262.83130	74.67638	176.95824	-1210.98071	42.04865	106.61005
984	3.93200	-893.05774	1071.50317	219.74776	-1078.73328	1021.12653	329.66748	-1056.93091	685.58966	364.95853	-1077.86060	645.31537	364.40204	-1113.38135	708.07782	377.67603	-1127.17041	665.14209	375.82349	-1105.14026	504.36359	355.67484	-1131.32263	493.61453	230.85211	-944.68866	345.39368	342.39847	-906.26251	324.99335	337.22339	-905.48645	397.20477	341.03500	-874.44501	367.92233	336.94742	-775.18188	260.03903	311.15338	-799.03619	254.77856	224.97200	-707.35925	300.41022	258.88776	-788.27893	126.74907	327.57388	-845.92413	96.20371	268.15253	-822.18634	99.04212	216.86494	-903.63342	1070.94702	146.16652	-1093.81274	1048.51343	60.82999	-1087.52588	750.13153	5.71013	-1098.44055	705.73083	13.94287	-1145.57410	762.11096	19.01101	-1149.53979	715.32367	21.24503	-1161.85889	493.38586	50.58274	-1141.36108	510.30276	174.09007	-1083.92444	295.30151	57.90272	-1088.51587	252.02646	76.28834	-1146.11707	296.36096	70.21221	-1140.57971	251.02336	84.65752	-1083.96399	90.96061	126.10696	-1107.79346	113.85876	212.36987	-1012.65845	55.45161	172.61304	-1245.04333	49.97896	221.31563	-1262.92639	74.49460	176.94215	-1210.99756	42.01627	106.56898
